<?xml version="1.0" encoding="UTF-8"?>
<!-- Generator: Adobe Illustrator 22.1.0, SVG Export Plug-In . SVG Version: 6.00 Build 0)  -->
<svg version="1.1" id="レイヤー_1" xmlns="http://www.w3.org/2000/svg" xmlns:xlink="http://www.w3.org/1999/xlink" x="0px" y="0px" viewBox="0 0 231 66" style="enable-background:new 0 0 231 66;" xml:space="preserve">
<g>
	<path d="M50.6,38.9c-1,4.2-3.2,8-6.2,11c-4.2,4.2-10.1,6.8-16.5,6.8c-3.6,0-7-0.8-10.1-2.3l24.3-22.4H16.8l21.4-19.7   c2.3,1.1,4.4,2.6,6.2,4.5c3,3,5.1,6.7,6.2,11l0.1,0.3h1.2l-0.1-0.5c-1.7-7-6.4-12.9-12.6-16.1L46.2,5h-1.8L38,10.9   c-3.1-1.4-6.5-2.2-10.1-2.2c-13.6,0-24.6,11-24.6,24.6c0,9.1,5,17.1,12.4,21.3l-6.1,5.7h1.1h0.7l0.3-0.2l0,0l5.2-4.8   c3.3,1.7,7.1,2.6,11,2.6c11.6,0,21.3-8,23.9-18.8l0.1-0.5h-1.2L50.6,38.9z M16.7,53.8c-1.9-1.1-3.7-2.4-5.3-4   c-4.2-4.2-6.8-10.1-6.8-16.5c0-6.5,2.6-12.3,6.8-16.5c4.2-4.2,10.1-6.8,16.5-6.8c3.2,0,6.3,0.7,9.1,1.8L13.7,33.3H39L16.7,53.8z"/>
	<g>
		<path d="M80.1,34.1c-1.2-1-2.9-1.6-5-2.1l0,0L74.7,32c0,0,0,0,0,0l-0.3-0.1c-3.7-0.8-5.2-2.5-5.2-4.5c0-2.5,2.3-4.6,5.3-4.6    c3,0,5.3,2.1,5.3,4.6l0,0.4h1.2v-6.6h-1.2V24c-1.2-1.5-3.1-2.4-5.3-2.4c-3.5,0-6.5,2.5-6.5,5.8h0c0,0,0,0,0,0c0,2.8,2.3,5,6.4,5.8    l0,0c2.2,0.4,3.8,1,4.9,1.9c1,0.9,1.6,1.9,1.6,3.6c0,3-2.8,5.5-6.3,5.5c-3.6,0-6.3-2.5-6.3-5.5l0-0.4H67v6.9h1.2v-2.9    c1.4,1.9,3.7,3,6.3,3.1c4.1,0,7.5-2.9,7.5-6.7c0,0,0,0,0,0C82.1,36.7,81.4,35.2,80.1,34.1z"/>
		<path d="M126.8,36.4h2.5v-1.2h-3l-5.6-15.3l-5.6,15.3l-3,0v1.2h2.5l-2.8,7.6h-3.3v1.2h8.2v-1.2h-3.6l2.8-7.6h9.5l2.8,7.6h-3.6v1.2    h8.2v-1.2h-3.4L126.8,36.4z M116.5,35.1l4.3-11.8l4.3,11.8H116.5z"/>
		<path d="M202.5,36.4h2.5v-1.2h-3l-5.6-15.3l-5.6,15.3l-3,0v1.2h2.5l-2.8,7.6h-3.4v1.2h8.2v-1.2H189l2.8-7.6h9.5l2.8,7.6h-3.6v1.2    h8.2v-1.2h-3.4L202.5,36.4z M192.2,35.1l4.3-11.8l4.3,11.8H192.2z"/>
		<polygon points="226.5,37.6 226.5,43.9 216.5,43.9 216.5,22.4 220,22.4 220,21.2 211.8,21.2 211.8,22.4 215.3,22.4 215.3,43.9     211.8,43.9 211.8,45.1 227.7,45.1 227.7,37.6   "/>
		<path d="M171.4,21.2h-8.9v1.2h3.6v21.7h-3.6v1.2h8.9c6.7,0,12.1-5.4,12.1-12.1C183.5,26.6,178,21.2,171.4,21.2z M167.3,22.4l4.1,0    c6,0,10.9,4.9,10.9,10.9c0,6-4.9,10.9-10.9,10.9h-4.1V22.4z"/>
		<path d="M104.9,39.4c-1.8,2.8-4.9,4.7-8.3,4.7c-5.5,0-10-4.7-10-10.7c0-5.9,4.5-10.6,10-10.7c3.5,0,6.7,1.9,8.5,4.9l1.1,1.9v-8.4    h-1.2v4.4c-2.1-2.4-5-3.9-8.4-3.9c-6.2,0-11.2,5.3-11.3,11.9c0,6.5,5,11.9,11.3,11.9c4,0,7.5-2.2,9.5-5.5l0.4-0.6H105L104.9,39.4z    "/>
		<polygon points="150.6,21.2 150.6,22.4 154.1,22.4 154.1,42.6 141.3,22.4 144.3,22.4 144.3,21.2 144.1,21.2 136.1,21.2     136.1,22.4 139.6,22.4 139.6,43.9 136.1,43.9 136.1,45.1 144.3,45.1 144.3,43.9 140.8,43.9 140.8,23.9 155.3,46.8 155.3,22.4     158.8,22.4 158.8,21.2   "/>
	</g>
</g>
</svg>